<svg width="66" height="96" viewBox="0 0 66 96" fill="none" xmlns="http://www.w3.org/2000/svg">
<g clip-path="url(#clip0_42_58)">
<path d="M33 48C33 39.2535 40.312 32.1628 49.332 32.1628C58.3518 32.1628 65.664 39.2535 65.664 48C65.664 56.7466 58.3518 63.8371 49.332 63.8371C40.312 63.8371 33 56.7466 33 48Z" fill="#1ABCFE"/>
<path d="M0.335938 79.6743C0.335938 70.9278 7.64802 63.8372 16.668 63.8372H33V79.6743C33 88.4209 25.688 95.5114 16.668 95.5114C7.64802 95.5114 0.335938 88.4209 0.335938 79.6743Z" fill="#0ACF83"/>
<path d="M33 0.48877V32.1629H49.332C58.352 32.1629 65.664 25.0724 65.664 16.3259C65.664 7.57929 58.352 0.48877 49.332 0.48877H33Z" fill="#FF7262"/>
<path d="M0.335938 16.3259C0.335938 25.0725 7.64802 32.1629 16.668 32.1629H33V0.48877H16.668C7.64802 0.48877 0.335938 7.57928 0.335938 16.3259Z" fill="#F24E1E"/>
<path d="M0.335938 48C0.335938 56.7466 7.64802 63.8371 16.668 63.8371H33V32.1628H16.668C7.64802 32.1628 0.335938 39.2535 0.335938 48Z" fill="#A259FF"/>
</g>
<defs>
<clipPath id="clip0_42_58">
<rect width="66" height="96" fill="white"/>
</clipPath>
</defs>
</svg>
