<svg width="129" height="32" viewBox="0 0 129 32" fill="none" xmlns="http://www.w3.org/2000/svg">
<path d="M9.7144 3.29784C8.45435 1.82446 7.36931 0.328058 7.1593 0.0172662C7.13597 -0.0057554 7.10097 -0.0057554 7.07763 0.0172662C6.85596 0.328058 5.77092 1.82446 4.51087 3.29784C-6.29286 16.8921 6.21427 26.0662 6.21427 26.0662L6.31927 26.1353C6.41261 27.5511 6.64595 29.5885 6.64595 29.5885H7.11263H7.57932C7.57932 29.5885 7.81266 27.5626 7.906 26.1353L8.011 26.0547C8.011 26.0662 20.5181 16.8921 9.7144 3.29784ZM7.11263 25.859C7.11263 25.859 6.55261 25.3871 6.40094 25.1453V25.1223L7.07763 10.3194C7.07763 10.2734 7.14763 10.2734 7.14763 10.3194L7.81266 25.1223V25.1453C7.66099 25.3871 7.11263 25.859 7.11263 25.859Z" fill="#00684A"/>
<path d="M30.5052 22.843L25.29 10.2848L25.2783 10.2502H21.2298V11.0905H21.8832C22.0815 11.0905 22.2682 11.1711 22.4082 11.3092C22.5482 11.4474 22.6182 11.6315 22.6182 11.8272L22.5015 24.4661C22.5015 24.8574 22.1749 25.1797 21.7782 25.1913L21.1132 25.2143V26.043H25.0566V25.2143L24.6483 25.2028C24.2516 25.1913 23.9249 24.8689 23.9249 24.4776V12.5639L29.6068 26.043C29.6885 26.2387 29.8752 26.3654 30.0852 26.3654C30.2952 26.3654 30.4818 26.2387 30.5635 26.043L36.1171 12.8632L36.1987 24.4661C36.1987 24.8689 35.872 25.1913 35.4637 25.2028H35.0437V26.0315H39.6638V25.2143H39.0338C38.6371 25.2143 38.3105 24.8805 38.2988 24.4891L38.2638 11.8502C38.2638 11.4474 38.5905 11.1251 38.9872 11.1136L39.6638 11.102V10.2502H35.7204L30.5052 22.843Z" fill="#00684A"/>
<path d="M66.8365 24.9841C66.7082 24.8575 66.6382 24.6848 66.6382 24.4776V18.2733C66.6382 17.0877 66.2882 16.1668 65.5881 15.5107C64.8998 14.8546 63.9314 14.5093 62.7414 14.5093C61.0613 14.5093 59.7429 15.1769 58.8212 16.5006C58.8096 16.5237 58.7745 16.5352 58.7395 16.5352C58.7045 16.5352 58.6812 16.5122 58.6812 16.4776L58.2495 14.8201H57.5145L55.6478 15.8791V16.4546H56.1261C56.3478 16.4546 56.5345 16.5122 56.6628 16.6273C56.7911 16.7424 56.8611 16.915 56.8611 17.1568V24.4661C56.8611 24.6733 56.7911 24.846 56.6628 24.9726C56.5345 25.0992 56.3595 25.1683 56.1494 25.1683H55.6828V26.0086H59.9646V25.1683H59.4979C59.2879 25.1683 59.1129 25.0992 58.9846 24.9726C58.8562 24.846 58.7862 24.6733 58.7862 24.4661V19.6201C58.7862 19.01 58.9262 18.3884 59.1829 17.7899C59.4512 17.2028 59.8479 16.6963 60.3729 16.3165C60.898 15.9366 61.528 15.7524 62.263 15.7524C63.0797 15.7524 63.6981 16.0057 64.0947 16.5122C64.4798 17.0186 64.6781 17.6863 64.6781 18.469V24.4431C64.6781 24.6503 64.6081 24.8229 64.4798 24.9496C64.3514 25.0762 64.1764 25.1452 63.9664 25.1452H63.4997V25.9855H67.7815V25.1452H67.3149C67.1399 25.1913 66.9765 25.1222 66.8365 24.9841Z" fill="#00684A"/>
<path d="M105.991 11.1941C104.813 10.5725 103.483 10.2502 102.059 10.2502H96.4826V11.0905H97.031C97.241 11.0905 97.4276 11.1711 97.6143 11.3553C97.7893 11.5279 97.8827 11.7236 97.8827 11.9308V24.3395C97.8827 24.5466 97.7893 24.7423 97.6143 24.915C97.4393 25.0877 97.241 25.1797 97.031 25.1797H96.4826V26.02H102.059C103.483 26.02 104.813 25.6977 106.003 25.0761C107.193 24.4546 108.15 23.5337 108.85 22.3596C109.55 21.1855 109.911 19.7697 109.911 18.1466C109.911 16.5351 109.55 15.1308 108.85 13.9337C108.138 12.7366 107.181 11.8272 105.991 11.1941ZM107.66 18.1236C107.66 19.597 107.391 20.8402 106.866 21.8416C106.341 22.8431 105.641 23.5913 104.79 24.0747C103.926 24.5582 102.981 24.7999 101.954 24.7999H100.823C100.613 24.7999 100.426 24.7193 100.239 24.5351C100.064 24.3625 99.9711 24.1668 99.9711 23.9596V12.2646C99.9711 12.0574 100.053 11.8733 100.239 11.6891C100.414 11.5164 100.613 11.4243 100.823 11.4243H101.954C102.981 11.4243 103.926 11.6661 104.79 12.1495C105.653 12.633 106.341 13.3812 106.866 14.3826C107.391 15.4071 107.66 16.6618 107.66 18.1236Z" fill="#00684A"/>
<path d="M123.084 18.9641C122.57 18.3771 121.579 17.8821 120.4 17.6174C122.01 16.8231 122.85 15.7066 122.85 14.2677C122.85 13.485 122.64 12.7828 122.22 12.1843C121.8 11.5857 121.205 11.1023 120.447 10.7684C119.688 10.4346 118.79 10.262 117.787 10.262H111.475V11.1023H111.977C112.187 11.1023 112.373 11.1828 112.56 11.367C112.735 11.5397 112.828 11.7353 112.828 11.9425V24.3512C112.828 24.5584 112.735 24.754 112.56 24.9267C112.385 25.0994 112.187 25.1915 111.977 25.1915H111.417V26.0317H118.265C119.303 26.0317 120.283 25.8591 121.159 25.5138C122.034 25.1684 122.745 24.662 123.247 23.9943C123.76 23.3267 124.017 22.5094 124.017 21.5656C124.005 20.5296 123.702 19.6663 123.084 18.9641ZM115.22 24.5584C115.045 24.3857 114.952 24.19 114.952 23.9828V18.4116H118.207C119.35 18.4116 120.237 18.6994 120.844 19.2749C121.45 19.8505 121.754 20.5987 121.754 21.5195C121.754 22.072 121.614 22.613 121.357 23.108C121.089 23.6145 120.692 24.0174 120.155 24.3282C119.63 24.6389 118.977 24.8001 118.207 24.8001H115.803C115.593 24.8116 115.407 24.731 115.22 24.5584ZM114.963 17.226V12.2764C114.963 12.0692 115.045 11.885 115.232 11.7008C115.407 11.5281 115.605 11.4361 115.815 11.4361H117.355C118.463 11.4361 119.292 11.7123 119.805 12.2418C120.319 12.7828 120.575 13.4735 120.575 14.3253C120.575 15.2001 120.33 15.9023 119.852 16.4317C119.373 16.9497 118.65 17.2145 117.682 17.2145H114.963V17.226Z" fill="#00684A"/>
<path d="M50.5142 15.246C49.6158 14.7625 48.6241 14.5093 47.5391 14.5093C46.4541 14.5093 45.4507 14.751 44.564 15.246C43.6656 15.7294 42.9656 16.4316 42.4406 17.3179C41.9156 18.1927 41.6472 19.2287 41.6472 20.3798C41.6472 21.5309 41.9156 22.5668 42.4406 23.4417C42.9656 24.328 43.6773 25.0301 44.564 25.5136C45.4624 25.997 46.4541 26.2503 47.5391 26.2503C48.6241 26.2503 49.6275 26.0086 50.5142 25.5136C51.4126 25.0301 52.1126 24.328 52.6376 23.4417C53.1626 22.5553 53.431 21.5193 53.431 20.3798C53.431 19.2402 53.1626 18.1927 52.6376 17.3179C52.1126 16.4316 51.4126 15.7294 50.5142 15.246ZM51.3776 20.3798C51.3776 21.7956 51.0276 22.9467 50.3275 23.764C49.6392 24.5927 48.7058 25.0186 47.5391 25.0186C46.3724 25.0186 45.439 24.5927 44.7507 23.764C44.0506 22.9352 43.7006 21.7841 43.7006 20.3798C43.7006 18.9755 44.0506 17.8129 44.7507 16.9956C45.439 16.1668 46.3724 15.7409 47.5391 15.7409C48.7058 15.7409 49.6392 16.1668 50.3275 16.9956C51.0276 17.8129 51.3776 18.964 51.3776 20.3798Z" fill="#00684A"/>
<path d="M91.6991 15.246C90.8007 14.7625 89.809 14.5093 88.724 14.5093C87.6389 14.5093 86.6356 14.751 85.7489 15.246C84.8505 15.7294 84.1505 16.4316 83.6255 17.3179C83.1004 18.2042 82.8321 19.2287 82.8321 20.3798C82.8321 21.5309 83.1004 22.5668 83.6255 23.4417C84.1505 24.3165 84.8622 25.0301 85.7489 25.5136C86.6472 25.997 87.6389 26.2503 88.724 26.2503C89.809 26.2503 90.8124 26.0086 91.6991 25.5136C92.5975 25.0301 93.2975 24.328 93.8225 23.4417C94.3475 22.5553 94.6159 21.5309 94.6159 20.3798C94.6159 19.2287 94.3475 18.1927 93.8225 17.3179C93.2975 16.4431 92.5858 15.7294 91.6991 15.246ZM92.5625 20.3798C92.5625 21.7956 92.2124 22.9467 91.5124 23.764C90.8241 24.5927 89.8907 25.0186 88.724 25.0186C87.5573 25.0186 86.6239 24.5927 85.9355 23.764C85.2355 22.9352 84.8855 21.7841 84.8855 20.3798C84.8855 18.9524 85.2355 17.8129 85.9355 16.9956C86.6239 16.1668 87.5573 15.7409 88.724 15.7409C89.8907 15.7409 90.8241 16.1668 91.5124 16.9956C92.2008 17.8129 92.5625 18.964 92.5625 20.3798Z" fill="#00684A"/>
<path d="M75.0851 14.5093C74.1517 14.5093 73.3 14.705 72.5184 15.0963C71.7483 15.4877 71.1416 16.0172 70.71 16.6963C70.2783 17.364 70.0566 18.1122 70.0566 18.9179C70.0566 19.6316 70.2199 20.2877 70.5583 20.8747C70.885 21.4388 71.3283 21.9107 71.8883 22.3021L70.2199 24.5467C70.0099 24.8229 69.9866 25.1913 70.1383 25.4906C70.3016 25.8014 70.605 25.9855 70.955 25.9855H71.4333C70.9666 26.2963 70.5933 26.6647 70.3366 27.1021C70.0333 27.597 69.8816 28.115 69.8816 28.6445C69.8816 29.6345 70.3249 30.4517 71.2 31.0733C72.0633 31.6834 73.2884 31.9942 74.8168 31.9942C75.8785 31.9942 76.9052 31.8215 77.8269 31.4877C78.7603 31.1539 79.5186 30.6589 80.0903 30.0143C80.662 29.3697 80.9537 28.587 80.9537 27.6776C80.9537 26.7337 80.6037 26.0661 79.787 25.41C79.0869 24.869 77.9902 24.5812 76.6135 24.5812H71.935C71.9233 24.5812 71.9117 24.5697 71.9117 24.5697C71.9117 24.5697 71.9 24.5467 71.9117 24.5352L73.125 22.9237C73.4517 23.0733 73.7551 23.1654 74.0234 23.2229C74.3034 23.2805 74.6184 23.3035 74.9684 23.3035C75.9485 23.3035 76.8468 23.1078 77.6169 22.7165C78.3869 22.3251 79.0053 21.7956 79.4603 21.1165C79.9036 20.4488 80.1253 19.7006 80.1253 18.9064C80.1253 18.0546 79.7053 16.4891 78.5619 15.6949C78.5619 15.6834 78.5736 15.6834 78.5736 15.6834L81.0937 15.9596V14.8201H77.0685C76.4268 14.6244 75.7735 14.5093 75.0851 14.5093ZM76.4968 21.7381C76.0535 21.9683 75.5751 22.0949 75.0968 22.0949C74.3151 22.0949 73.6267 21.8186 73.0317 21.2776C72.4484 20.7366 72.1567 19.9424 72.1567 18.9179C72.1567 17.8935 72.4484 17.1107 73.0317 16.5582C73.6151 16.0172 74.3034 15.7409 75.0968 15.7409C75.5868 15.7409 76.0535 15.856 76.4968 16.0978C76.9402 16.328 77.3019 16.6848 77.5935 17.1568C77.8736 17.6287 78.0252 18.2158 78.0252 18.9064C78.0252 19.6086 77.8852 20.1956 77.5935 20.656C77.3135 21.151 76.9402 21.5078 76.4968 21.7381ZM73.3234 25.9855H76.4968C77.3719 25.9855 77.9319 26.1582 78.3052 26.5265C78.6786 26.8949 78.8653 27.3899 78.8653 27.9654C78.8653 28.8057 78.5269 29.4963 77.8502 30.0143C77.1735 30.5323 76.2635 30.797 75.1318 30.797C74.1518 30.797 73.3351 30.5783 72.7284 30.164C72.1333 29.7496 71.83 29.1165 71.83 28.3107C71.83 27.8042 71.97 27.3323 72.25 26.9179C72.5417 26.5035 72.88 26.2042 73.3234 25.9855Z" fill="#00684A"/>
<path d="M126.385 25.8243C126.152 25.6977 125.977 25.5136 125.837 25.3064C125.709 25.0761 125.639 24.8459 125.639 24.5812C125.639 24.3164 125.709 24.0747 125.837 23.856C125.965 23.6258 126.152 23.4646 126.385 23.338C126.619 23.2114 126.875 23.1423 127.167 23.1423C127.459 23.1423 127.715 23.2114 127.949 23.338C128.182 23.4646 128.357 23.6488 128.497 23.856C128.625 24.0862 128.695 24.3164 128.695 24.5812C128.695 24.8459 128.625 25.0877 128.497 25.3064C128.369 25.5366 128.182 25.6977 127.949 25.8243C127.715 25.951 127.459 26.02 127.167 26.02C126.887 26.02 126.619 25.9625 126.385 25.8243ZM127.82 25.6632C128.019 25.5596 128.159 25.3984 128.275 25.2258C128.38 25.0301 128.439 24.8229 128.439 24.5812C128.439 24.3395 128.38 24.1323 128.275 23.9366C128.17 23.7409 128.019 23.5913 127.82 23.4992C127.622 23.3956 127.412 23.338 127.167 23.338C126.922 23.338 126.712 23.3956 126.514 23.4992C126.315 23.6028 126.175 23.7639 126.059 23.9366C125.954 24.1323 125.895 24.3395 125.895 24.5812C125.895 24.8229 125.954 25.0301 126.059 25.2258C126.164 25.4215 126.315 25.5711 126.514 25.6632C126.712 25.7668 126.922 25.8243 127.167 25.8243C127.412 25.8243 127.634 25.7668 127.82 25.6632ZM126.537 25.2718V25.1682L126.56 25.1567H126.63C126.654 25.1567 126.677 25.1452 126.689 25.1337C126.712 25.1107 126.712 25.0992 126.712 25.0761V24.0172C126.712 23.9941 126.7 23.9711 126.689 23.9596C126.665 23.9366 126.654 23.9366 126.63 23.9366H126.56L126.537 23.9251V23.833L126.56 23.8215H127.167C127.342 23.8215 127.47 23.856 127.575 23.9366C127.68 24.0172 127.727 24.1208 127.727 24.2589C127.727 24.3625 127.692 24.4661 127.61 24.5351C127.529 24.6157 127.435 24.6618 127.319 24.6733L127.459 24.7193L127.727 25.1337C127.75 25.1682 127.774 25.1797 127.809 25.1797H127.879L127.89 25.1913V25.2949L127.879 25.3064H127.517L127.494 25.2949L127.12 24.6848H127.027V25.0877C127.027 25.1107 127.039 25.1337 127.05 25.1452C127.074 25.1682 127.085 25.1682 127.109 25.1682H127.179L127.202 25.1797V25.2833L127.179 25.2949H126.56L126.537 25.2718ZM127.132 24.5236C127.225 24.5236 127.307 24.5006 127.354 24.4431C127.4 24.397 127.435 24.3164 127.435 24.2243C127.435 24.1323 127.412 24.0632 127.365 24.0056C127.319 23.9481 127.249 23.9251 127.167 23.9251H127.12C127.097 23.9251 127.074 23.9366 127.062 23.9481C127.039 23.9711 127.039 23.9826 127.039 24.0056V24.5121H127.132V24.5236Z" fill="#00684A"/>
</svg>
