<svg width="128" height="26" viewBox="0 0 128 26" fill="none" xmlns="http://www.w3.org/2000/svg">
<g clip-path="url(#clip0_42_73)">
<path d="M85.0905 0.0107422H107.386V4.12749H98.5415V25.7852H94.119V4.12749H85.0905V0.0107422Z" fill="black"/>
<path d="M48.423 0.0107422V4.12749H30.5517V10.7501H44.9238V14.8668H30.5517V21.6684H48.423V25.7852H26.1295V4.12749H26.1277V0.0107422H48.423Z" fill="black"/>
<path d="M59.5557 0.0214844H53.7684L74.4973 25.7959H80.3015L69.9357 12.9176L80.2849 0.0411486L74.4973 0.0500959L67.0382 9.31764L59.5557 0.0214844Z" fill="black"/>
<path d="M65.4944 18.4323L62.5962 14.8274L53.7519 25.8155H59.5558L65.4944 18.4323Z" fill="black"/>
<path fill-rule="evenodd" clip-rule="evenodd" d="M26.2845 25.7852L5.52775 0H0V25.7744H4.4222V5.50927L20.7291 25.7852H26.2845Z" fill="black"/>
<path d="M108.38 25.6278C108.056 25.6278 107.781 25.5156 107.55 25.2911C107.319 25.0667 107.205 24.7949 107.208 24.473C107.205 24.1599 107.319 23.891 107.55 23.6666C107.781 23.4421 108.056 23.3298 108.38 23.3298C108.691 23.3298 108.964 23.4421 109.195 23.6666C109.429 23.891 109.545 24.1599 109.549 24.473C109.545 24.6856 109.491 24.8805 109.383 25.0548C109.273 25.2321 109.132 25.3709 108.955 25.4713C108.781 25.5747 108.589 25.6278 108.38 25.6278Z" fill="black"/>
<path d="M115.928 14.7698H117.887V22.3225C117.884 23.0167 117.734 23.6104 117.441 24.1096C117.144 24.6088 116.734 24.9898 116.206 25.2586C115.682 25.5244 115.068 25.6603 114.37 25.6603C113.731 25.6603 113.159 25.5451 112.65 25.3206C112.14 25.0961 111.736 24.7594 111.439 24.3163C111.139 23.8733 110.993 23.3209 110.993 22.6593H112.955C112.958 22.9488 113.024 23.1998 113.15 23.4095C113.276 23.6192 113.45 23.7787 113.671 23.891C113.896 24.0032 114.154 24.0593 114.444 24.0593C114.759 24.0593 115.029 23.9943 115.247 23.8614C115.466 23.7315 115.634 23.5365 115.751 23.2766C115.865 23.0196 115.925 22.7006 115.928 22.3225V14.7698Z" fill="black"/>
<path d="M125.95 17.7235C125.903 17.2657 125.693 16.9083 125.327 16.6542C124.959 16.3973 124.482 16.2702 123.898 16.2702C123.488 16.2702 123.134 16.3323 122.84 16.4534C122.547 16.5774 122.319 16.7428 122.163 16.9526C122.007 17.1623 121.929 17.4015 121.923 17.6703C121.923 17.8948 121.977 18.0898 122.082 18.2522C122.187 18.4176 122.328 18.5565 122.511 18.6687C122.69 18.7839 122.891 18.8784 123.11 18.9552C123.332 19.032 123.553 19.097 123.775 19.1502L124.797 19.4012C125.207 19.4957 125.606 19.6228 125.986 19.7852C126.367 19.9447 126.712 20.1485 127.014 20.3937C127.317 20.6389 127.557 20.9342 127.733 21.2798C127.91 21.6254 128 22.0301 128 22.4968C128 23.1259 127.838 23.6783 127.511 24.1568C127.185 24.6323 126.714 25.0045 126.097 25.2733C125.483 25.5391 124.74 25.675 123.865 25.675C123.02 25.675 122.283 25.5451 121.663 25.2851C121.04 25.0282 120.554 24.65 120.203 24.1538C119.853 23.6576 119.664 23.0521 119.637 22.3402H121.579C121.606 22.7124 121.726 23.0225 121.929 23.2736C122.136 23.5217 122.406 23.7049 122.735 23.8289C123.068 23.95 123.439 24.012 123.85 24.012C124.279 24.012 124.656 23.947 124.983 23.82C125.306 23.693 125.561 23.5158 125.744 23.2854C125.93 23.058 126.022 22.7892 126.025 22.482C126.022 22.2014 125.938 21.968 125.777 21.7849C125.612 21.6018 125.384 21.4482 125.093 21.3241C124.8 21.2001 124.458 21.0878 124.069 20.9904L122.828 20.6772C121.932 20.4498 121.222 20.1042 120.704 19.6405C120.183 19.1768 119.925 18.5624 119.925 17.7914C119.925 17.1594 120.098 16.6041 120.449 16.1285C120.797 15.6529 121.273 15.2837 121.875 15.0208C122.481 14.755 123.164 14.625 123.925 14.625C124.698 14.625 125.375 14.755 125.959 15.0208C126.544 15.2837 127.002 15.65 127.335 16.1167C127.667 16.5834 127.841 17.118 127.85 17.7235H125.95Z" fill="black"/>
</g>
<defs>
<clipPath id="clip0_42_73">
<rect width="128" height="26" fill="white"/>
</clipPath>
</defs>
</svg>
