<svg width="122" height="73" viewBox="0 0 122 73" fill="none" xmlns="http://www.w3.org/2000/svg">
<g clip-path="url(#clip0_42_85)">
<path d="M60.3001 73.0002C59.8974 73.0002 59.4975 72.897 59.1445 72.6984L55.4664 70.5709C54.917 70.2707 55.1851 70.1645 55.3662 70.1034C56.0987 69.8528 56.2474 69.7962 57.0292 69.3624C57.1114 69.3166 57.219 69.3328 57.3031 69.3813L60.1288 71.0195C60.2308 71.0734 60.3756 71.0734 60.4702 71.0195L71.4879 64.8061C71.5899 64.7495 71.6561 64.6337 71.6561 64.5151V52.0938C71.6561 51.9698 71.5899 51.8594 71.4857 51.7974L60.4724 45.5894C60.3704 45.5301 60.2353 45.5301 60.1332 45.5894L49.1222 51.7974C49.0154 51.8567 48.9476 51.9725 48.9476 52.0911V64.5124C48.9476 64.631 49.0138 64.7441 49.1186 64.8007L52.1357 66.5036C53.7739 67.3039 54.775 66.3608 54.775 65.4124V53.1527C54.775 52.9776 54.9156 52.8428 55.0949 52.8428H56.4903C56.6641 52.8428 56.8075 52.9776 56.8075 53.1527V65.4178C56.8075 67.5517 55.6161 68.7777 53.545 68.7777C52.9079 68.7777 52.406 68.7777 51.005 68.1041L48.1147 66.4767C47.4004 66.0725 46.9592 65.3181 46.9592 64.5124V52.0911C46.9592 51.2828 47.4004 50.5283 48.1147 50.1295L59.1434 43.9135C59.8412 43.5282 60.7678 43.5282 61.46 43.9135L72.4749 50.1322C73.1865 50.5337 73.6305 51.2855 73.6305 52.0938V64.5151C73.6305 65.3208 73.1865 66.0725 72.4749 66.4767L61.46 72.6927C61.107 72.8921 60.7071 72.9945 60.299 72.9945" fill="#689F63"/>
<path d="M63.7033 64.4412C58.8825 64.4412 57.8718 62.2792 57.8718 60.4658C57.8718 60.2934 58.0141 60.156 58.1908 60.156H59.6139C59.7711 60.156 59.9035 60.2678 59.9283 60.4195C60.1434 61.8362 60.7832 62.5508 63.6983 62.5508C66.0204 62.5508 67.0077 62.0383 67.0077 60.8352C67.0077 60.1428 66.7264 59.6281 63.1192 59.2832C60.1021 58.9922 58.2377 58.3429 58.2377 55.9853C58.2377 53.8135 60.1131 52.5202 63.2543 52.5202C66.7816 52.5202 68.5301 53.7165 68.7507 56.287C68.759 56.376 68.7259 56.4622 68.6652 56.5268C68.6046 56.5888 68.5191 56.6265 68.4308 56.6265H66.9995C66.8505 56.6265 66.7209 56.5241 66.6906 56.384C66.3459 54.894 65.513 54.4171 63.2488 54.4171C60.7143 54.4171 60.4192 55.2793 60.4192 55.926C60.4192 56.7101 60.7667 56.9391 64.1865 57.381C67.5731 57.8202 69.1809 58.4399 69.1809 60.7652C69.1809 63.1093 67.1787 64.4539 63.6873 64.4539M77.107 51.2808H77.4766C77.78 51.2808 77.8379 51.0733 77.8379 50.9521C77.8379 50.6341 77.6145 50.6341 77.4904 50.6341H77.1098L77.107 51.2808ZM76.6575 50.2623H77.4766C77.7579 50.2623 78.3095 50.2623 78.3095 50.8766C78.3095 51.305 78.0282 51.3939 77.86 51.4478C78.1881 51.4694 78.2102 51.6796 78.2543 51.9759C78.2764 52.1619 78.3122 52.4825 78.3784 52.5903H77.8737C77.8599 52.4825 77.7827 51.8897 77.7827 51.8574C77.7496 51.7254 77.7028 51.6607 77.5345 51.6607H77.1181V52.593H76.6575V50.2623ZM75.673 51.4209C75.673 52.3855 76.47 53.1669 77.449 53.1669C78.4363 53.1669 79.2334 52.3693 79.2334 51.4209C79.2334 50.4536 78.4253 49.6857 77.4463 49.6857C76.481 49.6857 75.6702 50.4428 75.6702 51.4182M79.5753 51.4263C79.5753 52.5687 78.6184 53.501 77.4518 53.501C76.2935 53.501 75.3282 52.5795 75.3282 51.4263C75.3282 50.2515 76.3155 49.3516 77.4518 49.3516C78.5963 49.3516 79.5726 50.2542 79.5726 51.4263" fill="#689F63"/>
<path fill-rule="evenodd" clip-rule="evenodd" d="M26.1823 24.398C26.1823 23.9023 25.9147 23.4469 25.4768 23.2004L13.7956 16.634C13.5984 16.5209 13.3775 16.4616 13.1535 16.4535H13.0328C12.8088 16.4616 12.5879 16.5209 12.3874 16.634L0.706748 23.2004C0.271557 23.4482 0.000183105 23.9036 0.000183105 24.3994L0.0258313 42.0856C0.0258313 42.3308 0.155451 42.5599 0.37608 42.6811C0.591194 42.8104 0.861465 42.8104 1.07658 42.6811L8.02088 38.7957C8.45938 38.5408 8.7269 38.0903 8.7269 37.5994V29.3369C8.7269 28.8438 8.99441 28.3885 9.43153 28.1433L12.388 26.4797C12.6075 26.3558 12.8485 26.2944 13.094 26.2944C13.3356 26.2944 13.5821 26.3553 13.7956 26.4795L16.7506 28.1425C17.188 28.3877 17.4566 28.843 17.4566 29.3361V37.5981C17.4566 38.0884 17.7277 38.5411 18.164 38.7944L25.1039 42.6771C25.3218 42.8037 25.5929 42.8037 25.8099 42.6771C26.024 42.5558 26.1596 42.3268 26.1596 42.0816L26.1823 24.398ZM81.3032 33.6065C81.3032 33.7297 81.2362 33.8436 81.1267 33.9045L77.1145 36.1641C77.0056 36.2252 76.871 36.2252 76.7623 36.1641L72.7496 33.9045C72.6393 33.8434 72.5731 33.7294 72.5731 33.6065V29.081C72.5731 28.9576 72.6393 28.8438 72.7469 28.7819L76.7568 26.5185C76.8671 26.4566 77.0023 26.4566 77.1126 26.5185L81.1253 28.7819C81.2356 28.8438 81.3018 28.9576 81.3018 29.081L81.3032 33.6065ZM82.387 0.0872413C82.168 -0.0318526 81.9016 -0.0286193 81.6854 0.0945163C81.4703 0.21846 81.3374 0.444793 81.3374 0.689986V18.2038C81.3374 18.3762 81.2436 18.5352 81.0908 18.6214C80.9391 18.7077 80.7502 18.7077 80.5972 18.6214L77.6711 16.9749C77.2353 16.7286 76.6986 16.7286 76.2612 16.9749L64.5762 23.5636C64.1396 23.8088 63.8701 24.2641 63.8701 24.7545V37.9357C63.8701 38.4287 64.1396 38.8814 64.5762 39.1293L76.2612 45.7226C76.6975 45.9678 77.2348 45.9678 77.6724 45.7226L89.3575 39.1266C89.7933 38.8787 90.0635 38.4261 90.0635 37.933V5.08245C90.0635 4.58236 89.785 4.12242 89.3382 3.87804L82.387 0.0872413ZM121.299 28.9619C121.733 28.7156 122 28.2608 122 27.7704V24.5759C122 24.0844 121.732 23.6309 121.297 23.3836L109.687 16.7984C109.248 16.5505 108.711 16.5505 108.272 16.7984L96.5897 23.3863C96.1512 23.6342 95.8837 24.0868 95.8837 24.5799V37.7557C95.8837 38.2515 96.1568 38.7095 96.5953 38.9547L108.203 45.4186C108.631 45.6585 109.155 45.6611 109.588 45.4267L116.609 41.6141C116.83 41.4929 116.97 41.2638 116.97 41.0159C116.97 40.7681 116.835 40.5363 116.615 40.4151L104.861 33.8245C104.64 33.7033 104.505 33.4742 104.505 33.229V29.0958C104.505 28.849 104.637 28.6216 104.858 28.4987L108.515 26.4374C108.733 26.3135 109 26.3135 109.218 26.4374L112.878 28.4987C113.096 28.6199 113.231 28.849 113.231 29.0942V32.3436C113.231 32.5888 113.366 32.8179 113.584 32.9418C113.802 33.0631 114.072 33.0631 114.29 32.9391L121.299 28.9619Z" fill="#333333"/>
<path fill-rule="evenodd" clip-rule="evenodd" d="M108.808 28.3453C108.891 28.2976 108.995 28.2976 109.079 28.3453L111.321 29.609C111.405 29.6565 111.456 29.7437 111.456 29.8381V32.3681C111.456 32.4624 111.405 32.5497 111.321 32.5972L109.079 33.8608C108.995 33.9085 108.891 33.9085 108.808 33.8608L106.568 32.5972C106.482 32.5497 106.43 32.4624 106.43 32.3681V29.8381C106.43 29.7437 106.479 29.6565 106.565 29.609L108.808 28.3453Z" fill="#689F63"/>
<mask id="mask0_42_85" style="mask-type:luminance" maskUnits="userSpaceOnUse" x="32" y="16" width="27" height="30">
<path d="M44.3257 16.8641L32.7068 23.4162C32.2716 23.6614 32.0046 24.114 32.0046 24.6033V37.7166C32.0046 38.2062 32.2716 38.6586 32.7068 38.9038L44.3265 45.461C44.7609 45.7053 45.2964 45.7053 45.7303 45.461L57.348 38.9038C57.781 38.6586 58.0485 38.2059 58.0485 37.7166V24.6033C58.0485 24.114 57.781 23.6614 57.3453 23.4162L45.7292 16.8641C45.5113 16.7421 45.2686 16.6809 45.0259 16.6809C44.7832 16.6809 44.5405 16.7421 44.3226 16.8641" fill="white"/>
</mask>
<g mask="url(#mask0_42_85)">
<path d="M69.7899 22.3037L37.0499 6.62476L20.2628 40.0826L53.0019 55.7623L69.7899 22.3037Z" fill="url(#paint0_linear_42_85)"/>
</g>
<mask id="mask1_42_85" style="mask-type:luminance" maskUnits="userSpaceOnUse" x="32" y="16" width="26" height="30">
<path d="M32.2925 38.5492C32.4037 38.6901 32.5427 38.8122 32.7062 38.9038L42.6731 44.5284L44.3334 45.4607C44.5816 45.6008 44.8645 45.6601 45.1425 45.6399C45.2352 45.6326 45.3279 45.6156 45.4183 45.5906L57.6726 23.6687C57.5789 23.569 57.4691 23.4854 57.3461 23.4154L49.7383 19.1232L45.7167 16.8625C45.6026 16.7979 45.4787 16.7521 45.3527 16.7197L32.2925 38.5492Z" fill="white"/>
</mask>
<g mask="url(#mask1_42_85)">
<path d="M18.137 26.941L41.2548 57.5102L71.8285 35.4411L48.7093 4.8728L18.137 26.941Z" fill="url(#paint1_linear_42_85)"/>
</g>
<mask id="mask2_42_85" style="mask-type:luminance" maskUnits="userSpaceOnUse" x="32" y="16" width="27" height="30">
<path d="M44.8872 16.6885C44.6922 16.7073 44.5016 16.7666 44.326 16.8641L32.7402 23.3973L45.2333 45.6291C45.4071 45.6049 45.578 45.5483 45.7325 45.461L57.3514 38.9038C57.7099 38.7006 57.9553 38.3568 58.0298 37.9672L45.294 16.7108C45.2002 16.6928 45.1064 16.6833 45.0099 16.6833C44.9713 16.6833 44.9327 16.6852 44.8941 16.6887" fill="white"/>
</mask>
<g mask="url(#mask2_42_85)">
<path d="M32.7396 16.6833V45.6296H58.0246V16.6833H32.7396Z" fill="url(#paint2_linear_42_85)"/>
</g>
</g>
<defs>
<linearGradient id="paint0_linear_42_85" x1="53.4101" y1="14.4396" x2="37.245" y2="48.1925" gradientUnits="userSpaceOnUse">
<stop offset="0.3" stop-color="#3E863D"/>
<stop offset="0.5" stop-color="#55934F"/>
<stop offset="0.8" stop-color="#5AAD45"/>
</linearGradient>
<linearGradient id="paint1_linear_42_85" x1="29.8344" y1="42.4008" x2="59.9034" y2="19.6603" gradientUnits="userSpaceOnUse">
<stop offset="0.57" stop-color="#3E863D"/>
<stop offset="0.72" stop-color="#619857"/>
<stop offset="1" stop-color="#76AC64"/>
</linearGradient>
<linearGradient id="paint2_linear_42_85" x1="32.7482" y1="31.1573" x2="58.0293" y2="31.1573" gradientUnits="userSpaceOnUse">
<stop offset="0.16" stop-color="#6BBF47"/>
<stop offset="0.38" stop-color="#79B461"/>
<stop offset="0.47" stop-color="#75AC64"/>
<stop offset="0.7" stop-color="#659E5A"/>
<stop offset="0.9" stop-color="#3E863D"/>
</linearGradient>
<clipPath id="clip0_42_85">
<rect width="122" height="73" fill="white"/>
</clipPath>
</defs>
</svg>
