<svg width="110" height="94" viewBox="0 0 110 94" fill="none" xmlns="http://www.w3.org/2000/svg">
<g clip-path="url(#clip0_42_67)">
<path d="M55 56.4168C60.4148 56.4168 64.8043 52.2008 64.8043 47C64.8043 41.7993 60.4148 37.5833 55 37.5833C49.5852 37.5833 45.1956 41.7993 45.1956 47C45.1956 52.2008 49.5852 56.4168 55 56.4168Z" fill="#61DAFB"/>
<path d="M55 66.2928C84.055 66.2928 107.609 57.6551 107.609 46.9999C107.609 36.3448 84.055 27.707 55 27.707C25.945 27.707 2.3913 36.3448 2.3913 46.9999C2.3913 57.6551 25.945 66.2928 55 66.2928Z" stroke="#61DAFB"/>
<path d="M37.6042 56.6463C52.1317 80.814 71.6969 96.0869 81.3043 90.7593C90.9118 85.4317 86.9233 61.5211 72.3958 37.3534C57.8683 13.1858 38.3031 -2.08714 28.6956 3.24045C19.0882 8.56804 23.0767 32.4787 37.6042 56.6463Z" stroke="#61DAFB"/>
<path d="M37.6042 37.3535C23.0767 61.5212 19.0882 85.4318 28.6957 90.7594C38.3031 96.087 57.8683 80.8141 72.3958 56.6464C86.9233 32.4787 90.9118 8.5681 81.3044 3.24051C71.6969 -2.08708 52.1317 13.1858 37.6042 37.3535Z" stroke="#61DAFB"/>
</g>
<defs>
<clipPath id="clip0_42_67">
<rect width="110" height="94" fill="white"/>
</clipPath>
</defs>
</svg>
