<svg width="128" height="74" viewBox="0 0 128 74" fill="none" xmlns="http://www.w3.org/2000/svg">
<g clip-path="url(#clip0_42_105)">
<path fill-rule="evenodd" clip-rule="evenodd" d="M63.7217 0C46.7478 0 36.1739 8.21219 31.9072 24.6366C38.3072 16.4244 45.7275 13.3561 54.2609 15.3415C59.0841 16.5146 62.6087 19.9439 66.4116 23.6439C72.6261 29.8707 79.8609 37 95.629 37C112.603 37 123.27 28.7878 127.536 12.3634C121.136 20.5756 113.716 23.6439 105.275 21.5683C100.452 20.3951 96.9275 16.9659 93.1246 13.2659C86.8174 7.12927 79.5826 0 63.7217 0ZM31.9072 37C14.8406 37 4.26667 45.2122 0 61.6366C6.4 53.4244 13.8203 50.3561 22.3536 52.3415C27.1768 53.5146 30.7015 56.9439 34.5043 60.6439C40.7188 66.8707 47.9536 74 63.7217 74C80.6956 74 91.3623 65.7878 95.629 49.3634C89.229 57.5756 81.8087 60.6439 73.2754 58.5683C68.4522 57.3951 64.9275 53.9659 61.1246 50.2659C54.9101 44.1293 47.6754 37 31.9072 37Z" fill="#38BDF8"/>
</g>
<defs>
<clipPath id="clip0_42_105">
<rect width="128" height="74" fill="white"/>
</clipPath>
</defs>
</svg>
