<svg width="98" height="94" viewBox="0 0 98 94" fill="none" xmlns="http://www.w3.org/2000/svg">
<g clip-path="url(#clip0_42_82)">
<path d="M3.675 0H94.325C96.3547 0 98 1.57819 98 3.525V90.475C98 92.4219 96.3547 94 94.325 94H3.675C1.64534 94 0 92.4219 0 90.475V3.525C0 1.57819 1.64534 0 3.675 0Z" fill="white"/>
<path d="M3.675 0H94.325C96.3547 0 98 1.57819 98 3.525V90.475C98 92.4219 96.3547 94 94.325 94H3.675C1.64534 94 0 92.4219 0 90.475V3.525C0 1.57819 1.64534 0 3.675 0ZM54.4767 50.008V42.2986H19.5992V50.008H32.0513V84.3346H41.9636V50.008H54.4767ZM58.4287 83.4283C60.0273 84.2099 61.9179 84.7963 64.1007 85.1871C66.2831 85.578 68.5834 85.7736 71.0018 85.7736C73.3587 85.7736 75.5976 85.5584 77.7185 85.1286C79.8399 84.6987 81.6996 83.9901 83.2981 83.0031C84.8966 82.0161 86.162 80.7265 87.0945 79.1335C88.027 77.5406 88.4932 75.5717 88.4932 73.2264C88.4932 71.526 88.2268 70.0361 87.6942 68.7559C87.1612 67.4757 86.3927 66.3372 85.3885 65.3405C84.3844 64.3437 83.1801 63.4496 81.7765 62.6582C80.3724 61.8668 78.7894 61.1192 77.0269 60.4156C75.7359 59.9073 74.578 59.4138 73.5531 58.9351C72.5287 58.4564 71.6576 57.9676 70.9403 57.4694C70.223 56.9709 69.6697 56.4434 69.2803 55.8863C68.891 55.3295 68.6961 54.699 68.6961 53.9954C68.6961 53.3504 68.8706 52.7691 69.2189 52.2513C69.5672 51.7333 70.0591 51.2886 70.6946 50.9173C71.3297 50.546 72.1084 50.2578 73.0307 50.0525C73.9531 49.8475 74.9775 49.7448 76.1049 49.7448C76.9243 49.7448 77.7905 49.8034 78.7023 49.9205C79.6144 50.038 80.5315 50.2188 81.4535 50.4628C82.3758 50.7072 83.2725 51.0149 84.1436 51.3865C85.0146 51.7578 85.819 52.1877 86.5566 52.6762V43.911C85.0606 43.3636 83.4263 42.958 81.6536 42.6944C79.8806 42.4305 77.8467 42.2986 75.5516 42.2986C73.215 42.2986 71.0018 42.5379 68.9113 43.0169C66.8209 43.4956 64.9819 44.2433 63.3936 45.2596C61.8052 46.2758 60.5501 47.5705 59.6277 49.1436C58.7054 50.717 58.2444 52.5981 58.2444 54.7868C58.2444 57.5819 59.0899 59.9662 60.7807 61.9399C62.4712 63.9139 65.0381 65.5849 68.4813 66.9529C69.8337 67.4808 71.0941 67.9985 72.2622 68.5068C73.4303 69.0148 74.4397 69.5426 75.29 70.0897C76.1407 70.637 76.8116 71.2328 77.3035 71.8778C77.7954 72.5228 78.0415 73.2557 78.0415 74.0767C78.0415 74.6826 77.8878 75.2445 77.5802 75.7622C77.273 76.2803 76.8067 76.7297 76.1818 77.1107C75.5565 77.4918 74.7778 77.7901 73.8453 78.0048C72.9128 78.2199 71.8216 78.3273 70.5713 78.3273C68.4402 78.3273 66.3294 77.9708 64.239 77.2575C62.1486 76.5442 60.212 75.474 58.4287 74.0474V83.4283Z" fill="#3178C6"/>
</g>
<defs>
<clipPath id="clip0_42_82">
<rect width="98" height="94" fill="white"/>
</clipPath>
</defs>
</svg>
